<?xml version="1.0" standalone="no"?>
<!DOCTYPE svg PUBLIC "-//W3C//DTD SVG 20010904//EN"
 "http://www.w3.org/TR/2001/REC-SVG-20010904/DTD/svg10.dtd">
<svg version="1.0" xmlns="http://www.w3.org/2000/svg"
 width="1280.000000pt" height="972.000000pt" viewBox="0 0 1280.000000 972.000000"
 preserveAspectRatio="xMidYMid meet">

<g transform="translate(0.000000,972.000000) scale(0.100000,-0.100000)"
fill="#000000" stroke="none">
<path d="M7130 8023 c-204 -20 -340 -50 -590 -133 -805 -267 -1300 -958 -1300
-1814 0 -323 87 -676 231 -937 21 -40 39 -73 39 -75 0 -3 24 -41 53 -87 215
-332 522 -587 906 -752 100 -42 362 -126 534 -171 71 -18 131 -35 134 -38 3
-3 -7 -8 -21 -12 -15 -3 -30 -4 -33 0 -4 3 5 7 18 7 35 2 -47 18 -94 18 -27 1
-36 -3 -31 -11 5 -8 2 -9 -9 -5 -20 7 -22 -6 -6 -35 6 -11 7 -18 2 -15 -4 3
-8 -239 -8 -536 0 -503 0 -509 -2 -84 -3 399 -8 497 -25 447 -1 -5 -30 -13
-62 -16 -33 -3 -80 -9 -105 -14 -81 -17 -499 -32 -556 -20 -83 17 -233 40
-260 40 -14 0 -25 5 -25 10 0 6 -13 10 -28 10 -15 0 -33 5 -40 12 -9 9 -12 9
-12 -2 0 -10 -4 -8 -13 5 -8 10 -19 15 -26 11 -6 -4 -17 -4 -24 1 -7 5 -36 15
-66 22 -29 8 -65 19 -79 27 -17 9 -31 10 -43 3 -13 -6 -22 -4 -34 8 -9 9 -39
18 -68 21 -59 5 -60 -4 -2 -16 30 -6 41 -13 45 -32 3 -14 14 -26 25 -28 11 -2
25 -10 31 -17 6 -8 23 -16 37 -19 49 -9 67 -17 77 -37 6 -10 20 -19 31 -19 11
0 54 -14 95 -31 40 -17 84 -32 96 -33 13 -2 52 -13 87 -25 35 -12 66 -19 69
-17 3 3 10 2 16 -3 6 -6 34 -12 62 -14 82 -7 154 -55 172 -114 19 -63 40 -184
47 -263 3 -41 10 -100 15 -130 9 -55 18 -120 26 -195 2 -22 9 -74 15 -115 6
-41 15 -115 19 -165 5 -49 13 -121 19 -160 5 -38 18 -143 30 -232 11 -89 23
-173 26 -185 3 -13 9 -59 14 -103 5 -44 21 -168 35 -275 15 -107 31 -233 36
-280 6 -47 15 -103 21 -124 8 -30 8 -41 -3 -47 -10 -7 -11 -9 0 -9 7 0 11 -4
7 -9 -3 -5 3 -12 12 -14 27 -7 -69 -8 -1016 -8 -481 0 -877 3 -881 8 -18 19
-201 497 -224 583 -14 52 -39 210 -56 350 -84 686 -138 1015 -222 1357 l-42
173 40 42 c85 92 83 78 25 155 -42 55 -101 158 -101 176 0 2 30 -5 68 -14 47
-13 103 -18 192 -17 140 0 181 6 188 27 4 11 0 12 -14 6 -33 -15 -114 -18
-129 -5 -31 26 -18 42 33 39 26 -1 52 0 58 3 5 3 27 16 49 28 121 67 145 85
145 107 0 13 8 31 18 41 12 12 16 30 14 64 -2 31 2 53 12 65 9 10 22 26 29 37
12 17 16 14 40 -35 15 -30 34 -62 42 -73 14 -18 15 -18 57 3 73 36 75 40 102
167 14 65 37 173 51 239 70 328 135 639 135 651 0 32 -77 12 -362 -93 -115
-43 -179 -71 -182 -82 -5 -17 -92 -454 -124 -621 -10 -52 -22 -95 -28 -95 -5
0 -89 7 -187 14 l-177 14 -25 -23 c-14 -13 -27 -22 -29 -19 -2 2 -9 38 -15 79
-7 41 -32 134 -57 205 -25 72 -61 195 -80 275 -18 80 -43 166 -55 192 -38 82
-102 128 -204 147 -48 9 -48 9 -12 -41 17 -22 19 -36 13 -84 -4 -32 -8 -60
-10 -62 -3 -2 -16 4 -29 13 -24 16 -25 15 -20 -3 2 -11 -5 -39 -17 -63 -20
-38 -21 -49 -12 -89 7 -25 11 -83 11 -130 0 -47 5 -156 11 -244 6 -87 9 -160
7 -162 -1 -2 -18 38 -37 89 -78 214 -184 390 -319 529 -57 60 -107 108 -111
108 -6 0 -21 -31 -46 -98 -8 -19 -21 10 -78 165 -66 179 -86 225 -86 192 0 -7
-16 -46 -37 -85 l-37 -71 -84 -15 c-94 -18 -205 -68 -227 -102 -32 -48 -38
-126 -21 -237 57 -358 132 -533 364 -848 l55 -74 -7 -81 c-13 -175 -36 -443
-41 -488 -6 -48 -6 -48 25 -48 l30 0 0 -204 c0 -194 8 -326 30 -481 48 -336
49 -354 55 -967 l6 -598 -1556 0 -1555 0 0 -590 0 -590 6400 0 6400 0 0 593 0
593 -2547 -1 -2548 0 -6 -35 -6 -35 -3 30 c-5 69 -5 80 3 86 4 3 2 167 -5 365
-7 197 -12 379 -11 403 0 24 -2 39 -6 33 -3 -6 -5 60 -4 146 1 94 -2 145 -7
127 -7 -28 -8 -28 -9 13 0 23 4 42 10 42 5 0 8 4 4 10 -3 5 -6 96 -6 202 0
106 -3 187 -7 181 -4 -6 -6 79 -4 189 2 124 0 198 -6 194 -5 -3 -12 3 -15 14
-3 11 -1 18 4 14 5 -3 9 11 9 31 0 22 -4 34 -10 30 -6 -4 -10 7 -10 24 0 17 5
31 10 31 6 0 10 15 10 33 0 24 -3 28 -10 17 -7 -11 -10 -6 -10 22 0 20 -3 45
-6 55 -5 15 -4 15 5 3 14 -20 14 88 0 353 -8 161 -14 204 -26 214 -19 14 -21
14 156 38 635 85 1166 463 1449 1030 291 585 263 1309 -73 1895 -106 184 -185
289 -330 438 -312 323 -706 536 -1142 617 -160 29 -386 42 -523 28z m305 -93
c933 -77 1705 -796 1849 -1720 113 -722 -193 -1431 -784 -1820 -482 -317
-1075 -386 -1650 -193 -727 244 -1259 884 -1369 1648 -40 276 -13 582 75 855
44 137 157 361 241 479 308 429 790 703 1322 751 126 11 182 11 316 0z m-3413
-3476 c40 -8 89 -13 108 -10 56 9 195 -11 237 -33 21 -11 58 -38 82 -61 l44
-40 -23 -25 c-13 -13 -26 -23 -29 -22 -3 2 -31 15 -61 29 -57 27 -125 44 -116
29 3 -4 26 -14 51 -21 28 -8 45 -18 45 -28 0 -12 -11 -13 -72 -7 -203 20 -234
21 -280 9 l-47 -12 -6 31 c-2 18 -9 59 -15 91 -12 74 -13 86 -1 86 5 0 43 -7
83 -16z m-192 -308 c74 -9 117 -19 123 -27 91 -156 99 -171 104 -222 5 -52 4
-55 -28 -80 -19 -14 -55 -31 -79 -36 -52 -12 -250 -15 -250 -3 0 4 -7 88 -15
187 -8 99 -15 183 -15 188 0 10 26 9 160 -7z m3347 -132 c-3 -3 -12 -4 -19 -1
-8 3 -5 6 6 6 11 1 17 -2 13 -5z m63 -14 c-14 -4 -36 -8 -50 -8 -22 0 -22 1 5
8 17 4 39 8 50 8 16 0 15 -2 -5 -8z m118 -7 c-10 -2 -26 -2 -35 0 -10 3 -2 5
17 5 19 0 27 -2 18 -5z m165 -10 c-24 -2 -62 -2 -85 0 -24 2 -5 4 42 4 47 0
66 -2 43 -4z m-483 -22 c0 -4 -11 -6 -25 -3 -14 2 -25 6 -25 8 0 2 11 4 25 4
14 0 25 -4 25 -9z m103 -8 c-7 -2 -19 -2 -25 0 -7 3 -2 5 12 5 14 0 19 -2 13
-5z m84 1 c-3 -3 -12 -4 -19 -1 -8 3 -5 6 6 6 11 1 17 -2 13 -5z m356 -11 c-7
-2 -19 -2 -25 0 -7 3 -2 5 12 5 14 0 19 -2 13 -5z m-63 -13 c30 -4 51 -8 45
-9 -6 0 -9 -36 -7 -88 1 -49 6 -232 11 -408 5 -176 12 -419 15 -540 3 -121 11
-386 16 -590 6 -203 14 -532 20 -730 5 -198 10 -431 12 -518 l2 -157 -39 -60
c-21 -32 -45 -62 -52 -65 -8 -3 -47 -7 -86 -10 -52 -3 -63 -2 -39 4 35 9 54
21 32 21 -10 0 -10 3 0 15 7 8 9 15 4 15 -5 0 -10 21 -11 48 -11 234 -30 661
-38 872 -2 52 -8 208 -14 345 -5 138 -10 300 -11 360 0 61 -5 148 -10 195 -5
47 -12 202 -15 345 -4 143 -10 262 -14 265 -3 3 -7 73 -8 155 -3 285 -7 404
-13 400 -3 -2 -3 24 0 58 4 36 3 64 -3 66 -5 2 -3 7 4 12 17 10 122 10 199 -1z
m57 -202 c-3 -8 -6 -5 -6 6 -1 11 2 17 5 13 3 -3 4 -12 1 -19z m60 -710 c-2
-13 -4 -3 -4 22 0 25 2 35 4 23 2 -13 2 -33 0 -45z m-3822 -403 c63 -189 93
-323 175 -780 34 -187 77 -409 96 -495 19 -85 34 -154 34 -155 0 0 -103 -1
-229 -2 l-229 -1 -6 30 c-3 17 -6 72 -6 124 0 53 -16 202 -37 351 -58 410 -51
656 33 1088 8 44 20 104 26 134 l10 54 40 -94 c22 -52 63 -166 93 -254z m3802
163 c-2 -13 -4 -3 -4 22 0 25 2 35 4 23 2 -13 2 -33 0 -45z m20 -460 c-3 -8
-6 -5 -6 6 -1 11 2 17 5 13 3 -3 4 -12 1 -19z m20 -110 c-3 -8 -6 -5 -6 6 -1
11 2 17 5 13 3 -3 4 -12 1 -19z m-10 -240 c-3 -7 -5 -2 -5 12 0 14 2 19 5 13
2 -7 2 -19 0 -25z m0 -775 c-3 -10 -5 -2 -5 17 0 19 2 27 5 18 2 -10 2 -26 0
-35z m0 -95 c-2 -13 -4 -3 -4 22 0 25 2 35 4 23 2 -13 2 -33 0 -45z m61 -165
c2 -73 0 -133 -5 -133 -4 0 -8 53 -8 117 0 65 -3 134 -7 153 -7 30 -6 32 5 15
7 -12 13 -72 15 -152z m-711 -31 c27 -27 12 -25 -17 3 -16 16 -30 36 -30 44 0
10 6 7 17 -9 9 -14 23 -31 30 -38z m677 -64 c7 -5 4 -8 -6 -8 -10 0 -18 4 -18
9 0 5 -3 18 -6 28 -5 15 -3 15 7 -2 7 -11 17 -23 23 -27z m-27 -51 c-25 -6
-42 -6 -49 1 -6 6 0 8 18 4 17 -3 25 -1 21 5 -4 6 4 8 21 5 26 -6 25 -6 -11
-15z"/>
<path d="M7305 7050 c-33 -4 -80 -13 -105 -19 -100 -27 -236 -115 -320 -208
-57 -65 -131 -207 -151 -293 -17 -74 -15 -242 3 -310 75 -270 279 -458 550
-505 203 -36 416 31 576 178 49 45 130 163 151 218 7 19 17 43 21 54 37 92 45
272 16 380 -31 116 -91 220 -180 310 -69 70 -96 89 -176 127 -132 63 -253 84
-385 68z m136 -169 c39 -32 13 -45 -94 -47 -68 -1 -104 -7 -137 -22 -102 -45
-174 -122 -210 -223 -20 -59 -33 -74 -54 -66 -54 21 34 205 136 282 85 65 163
93 264 94 57 1 77 -3 95 -18z m-473 -524 c3 -86 3 -87 -22 -87 -30 0 -36 16
-36 94 0 64 12 89 40 84 12 -3 16 -22 18 -91z"/>
<path d="M6775 5520 c-280 -58 -492 -299 -520 -592 -6 -60 -4 -68 14 -77 28
-15 2214 -15 2242 0 18 9 19 17 13 82 -23 254 -190 471 -434 563 l-75 28 -600
2 c-330 1 -618 -1 -640 -6z"/>
<path d="M3047 6345 c-68 -24 -145 -83 -183 -139 -63 -95 -77 -196 -50 -351
25 -140 56 -179 56 -71 0 94 8 109 73 129 95 30 201 118 292 242 14 19 16 19
50 -20 41 -46 125 -207 125 -239 0 -13 9 -1 25 33 23 49 24 58 15 116 -23 144
-100 241 -230 288 -83 30 -117 33 -173 12z"/>
<path d="M4950 4279 c0 -5 5 -7 10 -4 6 3 10 8 10 11 0 2 -4 4 -10 4 -5 0 -10
-5 -10 -11z"/>
<path d="M4955 4250 c3 -5 8 -10 11 -10 2 0 4 5 4 10 0 6 -5 10 -11 10 -5 0
-7 -4 -4 -10z"/>
<path d="M4926 4192 c-3 -5 1 -9 9 -9 8 0 12 4 9 9 -3 4 -7 8 -9 8 -2 0 -6 -4
-9 -8z"/>
<path d="M5448 3933 c7 -3 16 -2 19 1 4 3 -2 6 -13 5 -11 0 -14 -3 -6 -6z"/>
<path d="M5505 3870 c3 -5 8 -10 11 -10 2 0 4 5 4 10 0 6 -5 10 -11 10 -5 0
-7 -4 -4 -10z"/>
<path d="M7631 3254 c0 -11 3 -14 6 -6 3 7 2 16 -1 19 -3 4 -6 -2 -5 -13z"/>
</g>
</svg>
